<svg width="499" height="42" viewBox="0 0 499 42" fill="none" xmlns="http://www.w3.org/2000/svg">
<path d="M87.9992 9.15527e-05H0.998047V42.0007H87.9992V9.15527e-05Z" fill="white"/>
<path d="M2.49807 1.50011V40.5006H86.4992V1.50011H2.49807ZM0.998047 9.15527e-05H87.9992V42.0007H0.998047V9.15527e-05Z" fill="#E4E4E4"/>
<path d="M32.5781 31.8988L36.0582 12.325H41.4957L38.1282 31.8988H32.5781Z" fill="#3C58BF"/>
<path d="M32.5781 31.8988L37.0362 12.325H41.4942L38.1282 31.8988H32.5781Z" fill="#293688"/>
<path d="M57.8072 12.5427C56.2078 11.9458 54.5116 11.6508 52.8046 11.6727C47.367 11.6727 43.452 14.3908 43.452 18.3058C43.452 21.2413 46.17 22.7639 48.345 23.7434C50.5201 24.7229 51.1726 25.3739 51.1726 26.2439C51.1726 27.5489 49.4326 28.1939 47.91 28.1939C46.1099 28.2337 44.3245 27.8618 42.69 27.1064L41.9295 26.7809L41.1689 31.2465C43.1531 31.9777 45.2525 32.3461 47.367 32.334C53.1301 32.334 56.9371 29.616 56.9371 25.4834C56.9371 23.2004 55.5241 21.4604 52.2616 20.0458C50.3116 19.0678 49.1115 18.5233 49.1115 17.5453C49.1115 16.6753 50.0896 15.8053 52.2616 15.8053C53.6776 15.7629 55.0864 16.0227 56.3941 16.5673L56.9371 16.7848L57.8072 12.5442V12.5427Z" fill="#3C58BF"/>
<path d="M57.8072 12.5427C56.2078 11.9458 54.5116 11.6508 52.8046 11.6727C47.367 11.6727 44.4315 14.3908 44.4315 18.3058C44.4241 19.51 44.7992 20.6854 45.5028 21.6627C46.2064 22.6399 47.2022 23.3685 48.3465 23.7434C50.5216 24.7214 51.1741 25.3739 51.1741 26.2439C51.1741 27.5489 49.434 28.1939 47.9115 28.1939C46.1114 28.2337 44.3259 27.8618 42.6915 27.1064L41.9309 26.7809L41.1689 31.2465C43.1531 31.9777 45.2525 32.3461 47.367 32.334C53.1301 32.334 56.9371 29.616 56.9371 25.4834C56.9371 23.2004 55.5241 21.4604 52.2616 20.0458C50.3116 19.0678 49.1115 18.5233 49.1115 17.5453C49.1115 16.6753 50.0896 15.8053 52.2616 15.8053C53.6776 15.7629 55.0864 16.0227 56.3941 16.5673L56.9371 16.7848L57.8072 12.5442V12.5427Z" fill="#293688"/>
<path d="M67.1579 12.325C65.8529 12.325 64.8749 12.4345 64.3304 13.738L56.1748 31.8988H62.0474L63.1349 28.6362H70.095L70.7475 31.8988H75.9676L71.4 12.325H67.1579ZM64.6574 25.3752C64.9829 24.3972 66.8325 19.6121 66.8325 19.6121C66.8325 19.6121 67.2675 18.4121 67.593 17.6621L67.9185 19.5101C67.9185 19.5101 69.006 24.4032 69.2235 25.4907H64.6559L64.6574 25.3752Z" fill="#3C58BF"/>
<path d="M68.463 12.325C67.158 12.325 66.1799 12.4345 65.6354 13.738L56.1748 31.8988H62.0474L63.1349 28.6362H70.095L70.7475 31.8988H75.9676L71.3985 12.325H68.463ZM64.6574 25.3752C65.0924 24.2877 66.8325 19.6121 66.8325 19.6121C66.8325 19.6121 67.2675 18.4121 67.5945 17.6621L67.92 19.5101C67.92 19.5101 69.0075 24.4032 69.225 25.4907H64.6574V25.3752Z" fill="#293688"/>
<path d="M22.5726 26.0265L22.0296 23.199C20.6618 19.4806 17.9439 16.4135 14.417 14.6084L19.3101 32.0086H25.1826L33.9908 12.4334H28.1197L22.5726 26.0265Z" fill="#3C58BF"/>
<path d="M22.5726 26.0265L22.0296 23.199C20.6618 19.4806 17.9439 16.4135 14.417 14.6084L19.3101 32.0086H25.1826L33.9908 12.4334H29.2072L22.5726 26.0265Z" fill="#293688"/>
<path d="M7.45703 12.3243L8.43504 12.5419C15.3951 14.1724 20.1802 18.3049 22.0282 23.192L20.0782 13.9489C19.7527 12.6439 18.7732 12.3183 17.5777 12.3183L7.45703 12.3243Z" fill="#FFBC00"/>
<path d="M7.45703 12.325C14.4171 13.9555 20.1802 18.1976 22.0297 23.0907L20.1802 15.3701C20.0458 14.7798 19.7137 14.2532 19.239 13.8775C18.7643 13.5018 18.1755 13.2997 17.5702 13.3045L7.45703 12.325Z" fill="#F7981D"/>
<path d="M7.45703 12.325C14.4171 13.9555 20.1802 18.1976 22.0297 23.0907L20.7247 18.8501C20.6596 18.1692 20.4136 17.518 20.0122 16.9641C19.6108 16.4103 19.0685 15.9738 18.4417 15.7001L7.45703 12.325Z" fill="#ED7C00"/>
<path d="M28.0106 25.3759L24.313 21.6783L22.573 25.8109L22.138 23.0929C20.7705 19.3738 18.0526 16.3062 14.5254 14.5007L19.4185 31.901H25.291L28.0106 25.3759Z" fill="#051244"/>
<path d="M38.1266 31.901L33.4511 27.1159L32.5811 31.901H38.1266Z" fill="#051244"/>
<path d="M50.6296 25.159C51.0646 25.594 51.2821 25.9195 51.1726 26.359C51.1726 27.664 49.4326 28.309 47.91 28.309C46.1099 28.3489 44.3244 27.9769 42.69 27.2215L41.928 26.896L41.1689 31.3571C43.1531 32.0883 45.2525 32.4567 47.367 32.4446C48.8048 32.5459 50.2482 32.3575 51.6117 31.8906C52.9753 31.4237 54.2313 30.6878 55.3052 29.7266L50.6296 25.159Z" fill="#051244"/>
<path d="M56.9365 31.9044H62.0471L63.1346 28.6418H70.0947L70.7472 31.9044H75.9673L74.1192 23.9663L67.5942 17.6662L67.9197 19.4062C67.9197 19.4062 69.0072 24.2993 69.2247 25.3868H64.6571C65.0921 24.2993 66.8321 19.6237 66.8321 19.6237C66.8321 19.6237 67.2672 18.4237 67.5942 17.6737" fill="#051244"/>
<path d="M160 0H93.999V42.0006H160V0Z" fill="white"/>
<path d="M95.499 1.50002V40.5005H158.5V1.50002H95.499ZM93.999 0H160V42.0006H93.999V0Z" fill="#E4E4E4"/>
<path d="M235.002 0H166.001V42.0006H235.002V0Z" fill="white"/>
<path d="M167.501 1.50002V40.5005H233.502V1.50002H167.501ZM166.001 0H235.002V42.0006H166.001V0Z" fill="#E4E4E4"/>
<path d="M307.002 9.15527e-05H241.001V42.0007H307.002V9.15527e-05Z" fill="white"/>
<path d="M242.501 1.50011V40.5006H305.502V1.50011H242.501ZM241.001 9.15527e-05H307.002V42.0007H241.001V9.15527e-05Z" fill="#E4E4E4"/>
<path d="M397.003 0H313.002V42.0006H397.003V0Z" fill="white"/>
<path d="M314.502 1.50002V40.5005H395.503V1.50002H314.502ZM313.002 0H397.003V42.0006H313.002V0Z" fill="#E4E4E4"/>
<path d="M144.777 36.0462V36.1228H144.848C144.861 36.1226 144.874 36.1191 144.885 36.1123C144.89 36.1091 144.893 36.1047 144.895 36.0997C144.898 36.0947 144.899 36.0893 144.899 36.0838C144.899 36.0782 144.898 36.0727 144.896 36.0677C144.893 36.0626 144.89 36.0583 144.885 36.0552C144.874 36.0485 144.861 36.0454 144.848 36.0462H144.777ZM144.849 35.9922C144.88 35.9908 144.91 35.9997 144.935 36.0177C144.945 36.0257 144.953 36.0361 144.958 36.0479C144.963 36.0596 144.965 36.0724 144.965 36.0852C144.965 36.0961 144.963 36.107 144.959 36.1171C144.955 36.1272 144.949 36.1363 144.941 36.1438C144.922 36.1606 144.898 36.1705 144.873 36.1722L144.968 36.2802H144.894L144.807 36.1722H144.779V36.2802H144.717V35.9922H144.851H144.849ZM144.83 36.3793C144.862 36.3795 144.893 36.3727 144.923 36.3597C144.951 36.3479 144.977 36.3307 144.999 36.3088C145.021 36.2869 145.038 36.2609 145.05 36.2323C145.075 36.1722 145.075 36.1048 145.05 36.0448C145.038 36.0163 145.021 35.9904 144.999 35.9682C144.977 35.9463 144.951 35.9291 144.923 35.9173C144.893 35.9052 144.861 35.899 144.83 35.8992C144.797 35.8989 144.765 35.9052 144.735 35.9173C144.706 35.9295 144.679 35.9472 144.657 35.9697C144.634 35.9922 144.616 36.0192 144.604 36.0486C144.592 36.0781 144.586 36.1095 144.587 36.1413C144.587 36.1731 144.594 36.2045 144.606 36.2337C144.618 36.2625 144.635 36.2885 144.657 36.3103C144.679 36.3322 144.706 36.3495 144.735 36.3612C144.765 36.3738 144.797 36.38 144.83 36.3793ZM144.83 35.8287C144.891 35.8284 144.952 35.8463 145.004 35.8801C145.056 35.914 145.096 35.9625 145.121 36.0193C145.137 36.0572 145.146 36.0979 145.146 36.1392C145.146 36.1805 145.137 36.2213 145.121 36.2592C145.104 36.2956 145.082 36.3288 145.053 36.3568C145.024 36.3845 144.99 36.4067 144.953 36.4227C144.894 36.4467 144.831 36.4533 144.769 36.4416C144.707 36.4298 144.65 36.4004 144.605 36.3568C144.576 36.3274 144.554 36.2927 144.539 36.2548C144.523 36.2172 144.515 36.1769 144.515 36.1361C144.515 36.0954 144.523 36.0549 144.538 36.0173C144.554 35.9797 144.577 35.9455 144.606 35.9168C144.635 35.888 144.669 35.8652 144.707 35.8498C144.746 35.8335 144.788 35.8254 144.831 35.8258L144.83 35.8287ZM115.768 34.7202C115.783 34.5061 115.871 34.3037 116.017 34.1469C116.164 33.99 116.36 33.8883 116.572 33.8588C116.785 33.8293 117.001 33.8739 117.184 33.985C117.368 34.0961 117.508 34.2668 117.58 34.4688C117.653 34.6707 117.653 34.8914 117.582 35.0939C117.511 35.2963 117.373 35.4682 117.19 35.5806C117.007 35.6929 116.791 35.739 116.578 35.711C116.366 35.6829 116.169 35.5826 116.022 35.4268C115.933 35.3329 115.865 35.2217 115.821 35.1001C115.777 34.9785 115.759 34.8491 115.768 34.7202ZM118.29 34.7202V33.1617H117.612V33.5411C117.495 33.3932 117.345 33.2753 117.174 33.1971C117.003 33.1188 116.816 33.0825 116.628 33.0912C116.209 33.1132 115.814 33.2952 115.525 33.5995C115.237 33.9039 115.076 34.3074 115.076 34.7269C115.076 35.1465 115.237 35.5502 115.525 35.8545C115.814 36.1589 116.209 36.3408 116.628 36.3628C116.816 36.3717 117.003 36.3354 117.174 36.2572C117.345 36.1789 117.495 36.0608 117.612 35.9127V36.2907H118.288V34.7322L118.29 34.7202ZM141.179 34.7202C141.193 34.5061 141.281 34.3037 141.428 34.1469C141.574 33.99 141.77 33.8883 141.982 33.8588C142.195 33.8293 142.411 33.8739 142.595 33.985C142.778 34.0961 142.918 34.2668 142.99 34.4688C143.063 34.6707 143.064 34.8914 142.993 35.0939C142.922 35.2963 142.783 35.4682 142.6 35.5806C142.417 35.6929 142.202 35.739 141.989 35.711C141.776 35.6829 141.58 35.5826 141.432 35.4268C141.343 35.3329 141.275 35.2217 141.231 35.1001C141.188 34.9785 141.17 34.8491 141.179 34.7202ZM143.702 34.7202V31.9062H143.024V33.5367C142.907 33.3888 142.757 33.2708 142.586 33.1925C142.415 33.1142 142.228 33.0779 142.04 33.0867C141.621 33.1086 141.226 33.2906 140.937 33.595C140.648 33.8993 140.487 34.303 140.487 34.7225C140.487 35.1421 140.648 35.5456 140.937 35.8499C141.226 36.1543 141.621 36.3363 142.04 36.3582C142.228 36.3671 142.415 36.3309 142.586 36.2526C142.757 36.1743 142.907 36.0562 143.024 35.9082V36.2863H143.702V34.7202ZM126.691 33.6913C126.895 33.6872 127.092 33.7636 127.24 33.904C127.388 34.0445 127.474 34.2376 127.48 34.4413H125.863C125.877 34.2332 125.971 34.0386 126.125 33.8986C126.28 33.7586 126.483 33.6842 126.691 33.6913ZM126.705 33.0912C126.279 33.1086 125.876 33.2916 125.583 33.6012C125.29 33.9108 125.129 34.3226 125.135 34.7489C125.141 35.1753 125.313 35.5824 125.615 35.8838C125.916 36.1852 126.323 36.3572 126.75 36.3628C127.214 36.3789 127.669 36.2235 128.026 35.9263L127.695 35.4253C127.439 35.6298 127.122 35.744 126.795 35.7507C126.571 35.7693 126.348 35.7 126.174 35.5575C126.001 35.415 125.889 35.2106 125.863 34.9873H128.176C128.176 34.9033 128.19 34.8177 128.19 34.7262C128.209 34.5199 128.184 34.312 128.119 34.1155C128.053 33.9191 127.947 33.7385 127.808 33.5849C127.669 33.4313 127.5 33.308 127.311 33.2231C127.122 33.1381 126.918 33.0933 126.711 33.0912H126.705ZM134.889 34.7262C134.903 34.5121 134.991 34.3094 135.137 34.1523C135.284 33.9952 135.479 33.8933 135.692 33.8636C135.904 33.8339 136.121 33.8782 136.304 33.9892C136.488 34.1002 136.628 34.2708 136.701 34.4728C136.773 34.6747 136.774 34.8956 136.703 35.0981C136.632 35.3006 136.494 35.4725 136.311 35.585C136.128 35.6974 135.912 35.7435 135.699 35.7155C135.487 35.6875 135.29 35.5871 135.142 35.4312C135.054 35.3375 134.986 35.2266 134.942 35.1052C134.898 34.9839 134.88 34.8548 134.889 34.7262ZM137.41 34.7262V33.1692H136.741V33.5486C136.625 33.4007 136.475 33.2828 136.304 33.2046C136.133 33.1263 135.945 33.09 135.757 33.0987C135.338 33.1207 134.944 33.3027 134.655 33.607C134.366 33.9114 134.205 34.3149 134.205 34.7344C134.205 35.154 134.366 35.5577 134.655 35.862C134.944 36.1664 135.338 36.3483 135.757 36.3703C135.945 36.3791 136.133 36.3428 136.304 36.2645C136.475 36.1862 136.625 36.0682 136.741 35.9203V36.2982H137.418V34.7398L137.41 34.7262ZM131.064 34.7262C131.055 34.9457 131.092 35.1649 131.172 35.3693C131.253 35.5737 131.375 35.7589 131.532 35.9131C131.689 36.0673 131.876 36.1869 132.081 36.2643C132.287 36.3418 132.507 36.3754 132.726 36.3628C133.133 36.3833 133.533 36.2505 133.846 35.9907L133.521 35.4433C133.286 35.6223 133 35.7208 132.705 35.7238C132.45 35.7098 132.21 35.5986 132.034 35.413C131.859 35.2275 131.761 34.9817 131.761 34.7262C131.761 34.4707 131.859 34.2249 132.034 34.0394C132.21 33.8538 132.45 33.7426 132.705 33.7286C133 33.7319 133.286 33.8303 133.521 34.0092L133.846 33.4617C133.533 33.2019 133.133 33.0693 132.726 33.0898C132.507 33.0772 132.287 33.1107 132.082 33.1881C131.876 33.2655 131.689 33.3849 131.533 33.5389C131.376 33.6929 131.253 33.878 131.173 34.0822C131.092 34.2864 131.055 34.5053 131.064 34.7247V34.7262ZM139.797 33.0898C139.632 33.0841 139.469 33.1228 139.325 33.202C139.181 33.2812 139.06 33.3979 138.977 33.5397V33.1617H138.304V36.2773H138.983V34.5312C138.983 34.0152 139.205 33.7303 139.647 33.7303C139.792 33.7281 139.936 33.7546 140.07 33.8083L140.279 33.1692C140.123 33.1141 139.96 33.0856 139.796 33.0852L139.797 33.0898ZM121.645 33.4108C121.262 33.183 120.821 33.0699 120.375 33.0852C119.586 33.0852 119.077 33.4633 119.077 34.0828C119.077 34.5913 119.455 34.9031 120.153 35.0021L120.472 35.0472C120.844 35.0997 121.02 35.1973 121.02 35.3728C121.02 35.6143 120.774 35.7507 120.31 35.7507C119.938 35.7615 119.573 35.647 119.274 35.4253L118.956 35.9532C119.351 36.2288 119.824 36.3703 120.306 36.3568C121.206 36.3568 121.726 35.9338 121.726 35.3398C121.726 34.7923 121.315 34.5056 120.637 34.4081L120.318 34.3618C120.018 34.3243 119.79 34.2657 119.79 34.0617C119.79 33.8577 120.012 33.6971 120.39 33.6971C120.731 33.7022 121.065 33.7942 121.36 33.9643L121.66 33.4168L121.645 33.4108ZM130.386 33.0852C130.221 33.0797 130.058 33.1186 129.914 33.1978C129.77 33.277 129.649 33.3936 129.565 33.5353V33.1557H128.893V36.2713H129.571V34.5252C129.571 34.0091 129.793 33.7242 130.236 33.7242C130.381 33.7221 130.524 33.7486 130.659 33.8022L130.867 33.1632C130.712 33.1078 130.549 33.0793 130.384 33.0791L130.386 33.0852ZM124.605 33.1572H123.498V32.2121H122.812V33.1572H122.181V33.7768H122.812V35.1972C122.812 35.9202 123.093 36.3507 123.894 36.3507C124.193 36.3518 124.487 36.268 124.741 36.1092L124.546 35.5302C124.364 35.6384 124.158 35.6989 123.946 35.7058C123.607 35.7058 123.496 35.4973 123.496 35.1838V33.7768H124.603L124.605 33.1572ZM114.477 36.2727V34.3228C114.488 34.1584 114.464 33.9934 114.407 33.8389C114.349 33.6844 114.26 33.544 114.144 33.4269C114.028 33.3098 113.888 33.2186 113.734 33.1597C113.58 33.1008 113.416 33.0754 113.251 33.0852C113.036 33.0704 112.82 33.1139 112.628 33.2114C112.435 33.3088 112.272 33.4565 112.156 33.6387C112.05 33.4625 111.899 33.3181 111.718 33.2207C111.537 33.1233 111.333 33.0765 111.127 33.0852C110.948 33.0762 110.77 33.114 110.61 33.1951C110.45 33.2761 110.314 33.3975 110.215 33.5472V33.1617H109.537V36.2773H110.221V34.5508C110.206 34.4441 110.215 34.3355 110.248 34.2327C110.28 34.13 110.334 34.0356 110.407 33.9564C110.48 33.8772 110.57 33.8152 110.67 33.7748C110.77 33.7344 110.877 33.7167 110.985 33.7228C111.435 33.7228 111.663 34.0227 111.663 34.5447V36.2788H112.348V34.5508C112.334 34.4444 112.344 34.3364 112.377 34.2342C112.409 34.132 112.464 34.0382 112.536 33.9593C112.609 33.8805 112.698 33.8184 112.797 33.7775C112.896 33.7367 113.003 33.718 113.11 33.7228C113.572 33.7228 113.794 34.0228 113.794 34.5433V36.2773L114.477 36.2727Z" fill="#231F20"/>
<path d="M145.166 25.913V25.463H145.048L144.911 25.775L144.775 25.463H144.656V25.913H144.74V25.5695L144.868 25.8695H144.955L145.082 25.5695V25.913H145.166ZM144.416 25.913V25.535H144.566V25.4585H144.178V25.535H144.328V25.913H144.412H144.416Z" fill="#F79410"/>
<path d="M131.681 27.8647H121.416V9.41449H131.682L131.681 27.8647Z" fill="#FF5F00"/>
<path d="M122.067 18.6425C122.066 16.8659 122.468 15.1123 123.245 13.5143C124.021 11.9163 125.15 10.5158 126.548 9.41884C124.817 8.05849 122.738 7.21256 120.549 6.97774C118.36 6.74292 116.149 7.12867 114.169 8.09091C112.189 9.05315 110.52 10.5531 109.352 12.4192C108.184 14.2854 107.564 16.4425 107.564 18.644C107.564 20.8455 108.184 23.0026 109.352 24.8687C110.52 26.7349 112.189 28.2348 114.169 29.197C116.149 30.1593 118.36 30.545 120.549 30.3102C122.738 30.0754 124.817 29.2294 126.548 27.8691C125.15 26.7718 124.02 25.3708 123.244 23.7723C122.468 22.1737 122.065 20.4195 122.067 18.6425Z" fill="#EB001B"/>
<path d="M145.537 18.6416C145.538 20.8432 144.918 23.0003 143.751 24.8665C142.583 26.7327 140.913 28.2327 138.933 29.1948C136.953 30.1569 134.742 30.5425 132.553 30.3074C130.364 30.0723 128.285 29.226 126.555 27.8653C127.952 26.7674 129.081 25.3666 129.858 23.7685C130.634 22.1705 131.038 20.4169 131.038 18.6401C131.038 16.8634 130.634 15.1098 129.858 13.5118C129.081 11.9137 127.952 10.5129 126.555 9.41502C128.285 8.05429 130.364 7.208 132.553 6.97289C134.742 6.73778 136.953 7.12334 138.933 8.08548C140.913 9.04763 142.583 10.5475 143.751 12.4137C144.918 14.2799 145.538 16.4371 145.537 18.6386" fill="#F79E1B"/>
<path d="M198.797 31.2451C201.057 29.2 202.53 26.4285 202.96 23.4111C203.39 20.3937 202.751 17.3209 201.153 14.7256C199.555 12.1303 197.098 10.1762 194.21 9.20236C191.322 8.2285 188.184 8.29628 185.341 9.39391C182.497 10.4915 180.128 12.5498 178.643 15.2117C177.158 17.8736 176.652 20.9711 177.213 23.9671C177.773 26.9631 179.364 29.6685 181.71 31.6141C184.056 33.5596 187.01 34.6226 190.057 34.6186C193.288 34.6144 196.401 33.4124 198.797 31.2451Z" fill="#009DDD"/>
<path d="M198.797 31.2457C200.15 30.023 201.231 28.5303 201.971 26.8637C202.711 25.1972 203.094 23.394 203.094 21.5706C203.094 19.7471 202.711 17.9439 201.971 16.2774C201.231 14.6109 200.15 13.1181 198.797 11.8954V31.2457Z" fill="#009DDD"/>
<path d="M207.563 8.52495C204.323 8.52248 201.199 9.72496 198.797 11.8985C198.336 12.334 197.901 12.7952 197.493 13.28H200.126C200.481 13.7223 200.814 14.1824 201.123 14.6585H196.497C196.217 15.1185 195.962 15.5786 195.731 16.0386H201.864C202.07 16.4976 202.272 16.9596 202.427 17.4186H195.197C195.041 17.8792 194.913 18.3485 194.812 18.8241H202.809C202.995 19.7324 203.089 20.657 203.091 21.5841C203.092 22.9909 202.867 24.3888 202.425 25.7242H195.195C195.347 26.1832 195.526 26.6432 195.731 27.1042H201.864C201.643 27.5775 201.395 28.0382 201.123 28.4842H196.497C196.801 28.9642 197.134 29.4251 197.495 29.8642H200.127C199.718 30.3553 199.273 30.8165 198.798 31.2443C200.368 32.6673 202.261 33.6867 204.313 34.2143C206.365 34.7419 208.515 34.7618 210.577 34.2724C212.639 33.7829 214.55 32.7988 216.146 31.405C217.742 30.0113 218.975 28.2498 219.738 26.2729C220.501 24.296 220.77 22.1631 220.524 20.0584C220.278 17.9538 219.523 15.9408 218.324 14.1934C217.126 12.446 215.52 11.0167 213.645 10.0291C211.77 9.04147 209.683 8.52523 207.564 8.52495H207.563Z" fill="#ED1C2E"/>
<path d="M216.097 24.3951C216.101 24.2837 216.15 24.1785 216.231 24.1023C216.312 24.026 216.42 23.9846 216.532 23.9871C216.585 23.9865 216.639 23.9966 216.689 24.0169C216.738 24.0372 216.784 24.0672 216.822 24.1052C216.86 24.1432 216.89 24.1885 216.91 24.2382C216.93 24.288 216.94 24.3413 216.94 24.3951C216.942 24.5065 216.901 24.6146 216.824 24.6959C216.748 24.7772 216.643 24.8254 216.532 24.8301C216.418 24.8263 216.309 24.7793 216.228 24.6985C216.147 24.6177 216.1 24.5092 216.097 24.3951ZM216.532 24.7281C216.573 24.726 216.614 24.7157 216.652 24.6978C216.689 24.6799 216.723 24.6548 216.751 24.6238C216.779 24.5929 216.8 24.5568 216.814 24.5175C216.828 24.4783 216.834 24.4366 216.832 24.3951C216.832 24.3155 216.8 24.2392 216.744 24.1829C216.688 24.1267 216.611 24.0951 216.532 24.0951C216.448 24.091 216.366 24.1203 216.304 24.1765C216.242 24.2328 216.204 24.3114 216.2 24.3951C216.201 24.4828 216.237 24.5666 216.298 24.6287C216.36 24.6909 216.444 24.7265 216.532 24.7281ZM216.481 24.5781H216.379V24.2196H216.529C216.58 24.2196 216.605 24.2196 216.631 24.2451C216.656 24.2706 216.68 24.2946 216.68 24.3216C216.68 24.3726 216.655 24.4236 216.604 24.4236L216.68 24.5736H216.578L216.527 24.4461H216.476V24.5751L216.481 24.5781ZM216.481 24.3741H216.583V24.2961H216.481V24.3741Z" fill="white"/>
<path d="M188.421 24.8308H186.786L187.757 19.7458L185.534 24.8308H184.05L183.795 19.7713L182.825 24.8308H181.343L182.595 18.2128H185.145L185.273 22.3003L187.064 18.2128H189.698L188.421 24.8308Z" fill="white"/>
<path d="M206.566 24.7545C206.185 24.8702 205.789 24.9303 205.39 24.933C204.573 24.933 204.112 24.525 204.112 23.7585C204.118 23.5955 204.135 23.4332 204.163 23.2725L204.265 22.7355L204.343 22.3275L205.084 18.2144H206.694L206.464 19.44H207.306L207.076 20.745H206.233L205.825 22.995C205.801 23.0697 205.784 23.1465 205.774 23.2245C205.774 23.5065 205.953 23.6325 206.337 23.6325C206.483 23.6326 206.628 23.6155 206.77 23.5815L206.565 24.7575L206.566 24.7545Z" fill="white"/>
<path d="M211.293 19.4931C211.238 19.4629 211.177 19.445 211.115 19.4406C211.037 19.4136 210.987 19.4136 210.987 19.3896H210.809C210.519 19.4008 210.238 19.4866 209.991 19.6388C209.745 19.791 209.542 20.0043 209.402 20.2581L209.552 19.4406H208.068L207.072 24.8407H208.707C209.295 21.5406 209.525 20.9556 210.317 20.9556C210.368 20.9556 210.446 20.9811 210.521 20.9811L210.701 21.0321L211.289 19.5006L211.293 19.4931Z" fill="white"/>
<path d="M200.126 21.1501C200.126 21.8147 200.51 22.3007 201.378 22.6337C202.043 22.9142 202.145 22.9907 202.145 23.2472C202.145 23.5787 201.845 23.7332 201.198 23.7332C200.695 23.7279 200.196 23.6506 199.715 23.5037L199.511 24.7562H199.589L199.869 24.8327C199.971 24.8327 200.124 24.8582 200.303 24.8582C200.608 24.8959 200.916 24.9124 201.224 24.9077C202.935 24.9077 203.754 24.3452 203.754 23.1197C203.754 22.3787 203.421 21.9437 202.578 21.6122C201.888 21.3571 201.812 21.2806 201.812 21.0241C201.812 20.7436 202.092 20.5906 202.629 20.5906C203.022 20.5946 203.414 20.6201 203.804 20.6672L204.035 19.4416C203.561 19.3727 203.083 19.3386 202.604 19.3396C200.765 19.3396 200.126 20.1556 200.126 21.1517V21.1501Z" fill="white"/>
<path d="M193.686 24.8312H192.357L192.384 24.2687C192.161 24.4907 191.892 24.6626 191.597 24.7728C191.302 24.883 190.987 24.929 190.673 24.9077C190.477 24.9189 190.282 24.8892 190.098 24.8203C189.915 24.7514 189.748 24.645 189.609 24.5078C189.469 24.3706 189.36 24.2057 189.288 24.0237C189.216 23.8418 189.183 23.6467 189.191 23.4512C189.191 22.1476 190.241 21.3811 192.053 21.3811C192.274 21.3784 192.496 21.3874 192.717 21.4081C192.752 21.3012 192.769 21.1892 192.768 21.0766C192.768 20.7196 192.486 20.5906 191.718 20.5906C191.272 20.5898 190.827 20.6325 190.389 20.7181L190.16 20.7946L190.01 20.8201L190.239 19.6201C190.874 19.4395 191.529 19.3452 192.189 19.3396C193.593 19.3396 194.31 19.8751 194.31 20.8966C194.302 21.2578 194.259 21.6175 194.183 21.9706L193.851 23.8877L193.8 24.2192L193.748 24.5012L193.722 24.6797L193.697 24.8297L193.686 24.8312ZM192.51 22.4311C192.392 22.4126 192.273 22.4041 192.153 22.4057C191.232 22.4057 190.773 22.6861 190.773 23.2246C190.767 23.2999 190.777 23.3756 190.803 23.4465C190.829 23.5175 190.87 23.5819 190.924 23.6354C190.977 23.6888 191.041 23.7301 191.112 23.7563C191.183 23.7825 191.259 23.793 191.334 23.7872C191.501 23.7773 191.663 23.7344 191.813 23.6609C191.963 23.5873 192.096 23.4847 192.206 23.359C192.315 23.2333 192.398 23.0871 192.451 22.9288C192.503 22.7705 192.523 22.6033 192.51 22.4371V22.4311Z" fill="white"/>
<path d="M199.026 24.7034C198.486 24.855 197.927 24.9322 197.366 24.9329C195.554 24.9329 194.606 24.0899 194.606 22.5044C194.571 22.106 194.618 21.7047 194.744 21.3251C194.87 20.9454 195.072 20.5954 195.337 20.2964C195.603 19.9974 195.927 19.7557 196.289 19.586C196.651 19.4163 197.044 19.3222 197.444 19.3094C197.718 19.2752 197.997 19.3004 198.261 19.3832C198.525 19.466 198.769 19.6045 198.975 19.7893C199.181 19.9741 199.345 20.201 199.455 20.4546C199.566 20.7082 199.621 20.9827 199.617 21.2594C199.612 21.7081 199.551 22.1544 199.437 22.5884H196.19V22.7684C196.19 23.3819 196.65 23.7135 197.595 23.7135C198.174 23.717 198.747 23.6043 199.281 23.3819L199.026 24.711V24.7034ZM198.158 21.5099V21.2279C198.158 20.7944 197.876 20.5364 197.391 20.5364C196.88 20.5364 196.523 20.8934 196.368 21.5084L198.158 21.5099Z" fill="white"/>
<path d="M216.352 22.3757C216.315 22.754 216.204 23.1213 216.024 23.4563C215.845 23.7913 215.6 24.0873 215.306 24.3273C215.011 24.5672 214.671 24.7463 214.307 24.8542C213.942 24.9621 213.56 24.9966 213.182 24.9557C212.844 24.9959 212.501 24.9601 212.178 24.8509C211.855 24.7417 211.561 24.5617 211.317 24.3243C211.072 24.0868 210.884 23.7979 210.766 23.4784C210.647 23.1589 210.602 22.817 210.632 22.4777C210.606 22.0514 210.671 21.6244 210.822 21.225C210.973 20.8256 211.208 20.4628 211.51 20.1607C211.811 19.8585 212.174 19.6239 212.573 19.4723C212.973 19.3207 213.399 19.2555 213.826 19.2811C214.16 19.2479 214.497 19.2867 214.815 19.3948C215.133 19.5029 215.424 19.678 215.669 19.9081C215.914 20.1382 216.106 20.4181 216.233 20.7289C216.361 21.0396 216.42 21.3741 216.407 21.7097C216.417 21.9329 216.4 22.1566 216.356 22.3757H216.352ZM214.666 21.6842C214.666 21.1217 214.435 20.6132 213.766 20.6132C212.947 20.6132 212.435 21.5837 212.435 22.4522C212.435 23.1677 212.794 23.6522 213.356 23.6522C213.673 23.5886 213.963 23.4297 214.187 23.1967C214.411 22.9637 214.558 22.6678 214.609 22.3487C214.652 22.1295 214.669 21.9059 214.66 21.6827L214.666 21.6842Z" fill="white"/>
<path d="M249.726 16.6686H251.727L250.726 14.1185L249.726 16.6686Z" fill="#2FABF7"/>
<path d="M274.56 14.4829C274.326 14.402 274.079 14.3709 273.832 14.3914H272.01V15.8464H273.829C274.076 15.8669 274.323 15.8358 274.557 15.7549C274.653 15.6811 274.729 15.5839 274.776 15.4725C274.824 15.3612 274.843 15.2394 274.83 15.1189C274.874 14.9984 274.871 14.8657 274.82 14.7476C274.77 14.6294 274.677 14.5348 274.56 14.4829Z" fill="#228FE0"/>
<path d="M294.015 11.7544V12.8464L293.469 11.7544H289.194V12.8464L288.648 11.7544H282.832C281.951 11.7308 281.077 11.918 280.282 12.3004V11.7544H276.193V12.3004C275.701 11.9188 275.088 11.7252 274.465 11.7544H259.815L258.814 14.0284L257.821 11.7544H253.182V12.8464L252.636 11.7544H248.725L246.905 16.0295L244.814 20.7545H249.453L249.999 19.2995H251.272L251.818 20.7545H257.094V19.6625L257.544 20.7545H260.181L260.631 19.6625V20.7545H273.273V18.3905H273.465C273.646 18.3905 273.646 18.3905 273.646 18.6635V20.6645H280.195V20.1185C280.96 20.4896 281.801 20.6766 282.651 20.6645H285.379L285.926 19.2095H287.199L287.745 20.6645H293.021V19.301L293.84 20.6645H298.115V11.7544H294.015ZM263.274 19.394H261.732V14.3915L259.549 19.394H258.184L256.002 14.3915V19.394H252.915L252.279 18.0305H249.18L248.634 19.4855H246.907L249.636 13.0354H251.908L254.458 19.13V13.0294H256.911L258.915 17.3945L260.734 13.0294H263.284L263.274 19.394ZM269.458 14.3915H265.915V15.5735H269.365V16.847H265.915V18.1205H269.463V19.4855H264.363V13.0354H269.463L269.458 14.3915ZM276.28 17.0285C276.477 17.3905 276.571 17.799 276.553 18.2105V19.484H275.01V18.665C275.052 18.2225 274.956 17.7779 274.737 17.3915C274.464 17.1185 274.191 17.1185 273.645 17.1185H272.01V19.484H270.465V13.0339H273.915C274.535 12.9604 275.163 13.0546 275.734 13.3069C275.979 13.4582 276.176 13.6744 276.304 13.9313C276.433 14.1882 276.487 14.4758 276.462 14.7619C276.475 15.1265 276.378 15.4865 276.183 15.7948C275.988 16.1032 275.705 16.3455 275.37 16.49C275.724 16.5719 276.044 16.7634 276.283 17.0375L276.28 17.0285ZM279.009 19.3925H277.467V12.9424H279.015L279.009 19.3925ZM296.927 19.3925H294.747L291.837 14.5714V19.3925H288.744L288.198 18.029H285.015L284.469 19.484H282.741C282.319 19.5314 281.892 19.48 281.494 19.3339C281.096 19.1878 280.737 18.9509 280.446 18.6421C280.155 18.3333 279.939 17.961 279.817 17.5547C279.695 17.1483 279.669 16.7191 279.741 16.301C279.689 15.3788 279.98 14.4701 280.56 13.7509C280.864 13.4734 281.225 13.2647 281.618 13.1392C282.01 13.0136 282.425 12.9741 282.834 13.0234H284.289V14.3885H282.834C282.408 14.3549 281.985 14.4853 281.652 14.753C281.328 15.1662 281.168 15.6841 281.202 16.208C281.164 16.4829 281.185 16.7627 281.262 17.0291C281.34 17.2955 281.473 17.5427 281.652 17.7545C281.799 17.8866 281.972 17.9872 282.16 18.0499C282.348 18.1125 282.547 18.1361 282.744 18.119H283.38L285.465 13.1194H287.739L290.289 19.2125V13.1194H292.563L295.2 17.576V13.1194H296.747V19.3955L296.927 19.3925Z" fill="#0571C1"/>
<path d="M285.561 16.6681H287.653L286.653 14.1181L285.561 16.6681Z" fill="#228FE0"/>
<path d="M270.098 29.762V24.578L267.734 27.128L270.098 29.762Z" fill="#228FE0"/>
<path d="M260.367 25.2152V26.3972H263.732V27.6707H260.367V29.0357H264.096L265.824 27.1262L264.188 25.2167L260.367 25.2152Z" fill="#2FABF7"/>
<path d="M273.555 25.2144H271.646V26.8509H273.647C274.193 26.8509 274.556 26.5779 274.556 26.0319C274.53 25.7913 274.411 25.5704 274.223 25.4174C274.036 25.2643 273.796 25.1913 273.555 25.2144Z" fill="#228FE0"/>
<path d="M301.66 26.762V22.6684H297.839C297.159 22.627 296.485 22.8197 295.93 23.2145V22.6684H291.746C291.095 22.6399 290.454 22.8323 289.926 23.2145V22.6684H282.56V23.2145C281.963 22.8354 281.266 22.6451 280.559 22.6684H275.648V23.2145C275.027 22.8129 274.293 22.6215 273.555 22.6684H268.098L266.825 24.0319L265.643 22.6684H257.457V31.5816H265.461L266.735 30.2181L267.917 31.5816H272.828V29.489H273.464C274.172 29.5331 274.883 29.4404 275.556 29.2161V31.6686H279.65V29.3045H279.831C280.104 29.3045 280.104 29.3046 280.104 29.5776V31.6686H292.474C293.213 31.7091 293.947 31.5183 294.574 31.1226V31.6686H298.484C299.239 31.7237 299.995 31.568 300.667 31.2186C301.127 30.9312 301.504 30.5279 301.759 30.049C302.015 29.5701 302.14 29.0325 302.122 28.49C302.121 27.8836 301.961 27.288 301.66 26.762ZM273.459 28.217H271.64V30.3995H268.73L266.91 28.307L265.001 30.3995H259.001V23.9495H265.094L266.913 26.042L268.823 23.9495H273.644C274.826 23.9495 276.194 24.3124 276.194 26.042C276.102 27.8525 274.829 28.2185 273.465 28.2185L273.459 28.217ZM282.554 27.8525C282.761 28.2103 282.856 28.6221 282.827 29.0345V30.3081H281.28V29.489C281.332 29.0461 281.236 28.5985 281.007 28.2155C280.826 27.9425 280.461 27.9425 279.915 27.9425H278.279V30.3066H276.732V23.8564H280.182C280.802 23.7911 281.428 23.8851 282.002 24.1295C282.259 24.2738 282.471 24.4858 282.615 24.7424C282.759 24.9989 282.831 25.2902 282.821 25.5845C282.834 25.949 282.737 26.309 282.542 26.6173C282.347 26.9257 282.064 27.168 281.729 27.3125C282.057 27.3971 282.349 27.5867 282.56 27.8525H282.554ZM288.83 25.2155H285.282V26.3975H288.732V27.671H285.282V28.9445H288.83V30.3081H283.73V23.8579H288.83V25.2155ZM292.651 30.3155H289.74V28.952H292.651C292.763 28.9712 292.879 28.9648 292.989 28.9334C293.099 28.902 293.201 28.8463 293.287 28.7705C293.403 28.6479 293.468 28.4852 293.468 28.316C293.468 28.1469 293.403 27.9842 293.287 27.8615C293.135 27.7327 292.939 27.6676 292.741 27.68C291.285 27.5885 289.557 27.68 289.557 25.679C289.557 24.77 290.103 23.7695 291.74 23.7695H294.74V25.316H291.92C291.704 25.2949 291.486 25.3263 291.284 25.4075C291.102 25.499 291.102 25.6805 291.102 25.8575C291.102 26.1305 291.284 26.222 291.467 26.3075C291.639 26.3818 291.826 26.4133 292.013 26.399H292.832C293.142 26.3692 293.455 26.4022 293.752 26.496C294.049 26.5898 294.323 26.7425 294.56 26.945C294.885 27.3226 295.046 27.8134 295.01 28.31C295.021 29.6721 294.208 30.3081 292.655 30.3081L292.651 30.3155ZM300.473 29.6795C299.945 30.1342 299.259 30.3627 298.564 30.3155H295.654V28.952H298.564C298.676 28.9712 298.792 28.9648 298.902 28.9334C299.012 28.902 299.114 28.8463 299.2 28.7705C299.316 28.6479 299.381 28.4852 299.381 28.316C299.381 28.1469 299.316 27.9842 299.2 27.8615C299.048 27.7327 298.852 27.6676 298.654 27.68C297.199 27.5885 295.471 27.68 295.471 25.679C295.471 24.77 296.017 23.7695 297.653 23.7695H300.653V25.316H297.925C297.708 25.2949 297.49 25.3263 297.289 25.4075C297.107 25.499 297.107 25.6805 297.107 25.8575C297.107 26.1305 297.199 26.222 297.472 26.3075C297.643 26.3818 297.831 26.4133 298.018 26.399H298.837C299.147 26.3692 299.459 26.4022 299.756 26.496C300.053 26.5898 300.328 26.7425 300.565 26.945C300.577 26.9446 300.589 26.9466 300.6 26.9511C300.611 26.9555 300.622 26.9623 300.63 26.9709C300.639 26.9795 300.646 26.9897 300.65 27.001C300.654 27.0123 300.657 27.0244 300.656 27.0365C300.913 27.4102 301.041 27.8572 301.021 28.31C301.028 28.5621 300.983 28.8129 300.89 29.0471C300.796 29.2813 300.656 29.494 300.478 29.672L300.473 29.6795Z" fill="#0571C1"/>
<path d="M280.926 25.3978C280.692 25.317 280.445 25.2858 280.198 25.3063H278.376V26.7613H280.195C280.442 26.7819 280.69 26.7507 280.923 26.6698C281.019 26.596 281.095 26.4988 281.143 26.3875C281.19 26.2761 281.209 26.1543 281.196 26.0338C281.24 25.9133 281.237 25.7806 281.187 25.6625C281.136 25.5443 281.043 25.4498 280.926 25.3978Z" fill="#228FE0"/>
<path d="M274.559 14.4824C274.325 14.4015 274.078 14.3704 273.831 14.3909H272.009V15.8459H273.828C274.075 15.8665 274.322 15.8353 274.556 15.7544C274.652 15.6806 274.728 15.5834 274.775 15.472C274.823 15.3607 274.842 15.2389 274.829 15.1184C274.873 14.9979 274.87 14.8652 274.819 14.7471C274.769 14.629 274.676 14.5343 274.559 14.4824Z" fill="#228FE0"/>
<path d="M285.561 16.6681H287.653L286.653 14.1181L285.561 16.6681Z" fill="#228FE0"/>
<path d="M270.098 29.762V24.578L267.734 27.128L270.098 29.762Z" fill="#228FE0"/>
<path d="M273.555 25.2147H271.646V26.8513H273.647C274.193 26.8513 274.556 26.5783 274.556 26.0323C274.53 25.7916 274.411 25.5708 274.223 25.4177C274.036 25.2646 273.796 25.1916 273.555 25.2147Z" fill="#228FE0"/>
<path d="M280.926 25.3974C280.692 25.3165 280.445 25.2854 280.198 25.3058H278.376V26.7609H280.195C280.442 26.7814 280.69 26.7502 280.923 26.6694C281.019 26.5956 281.095 26.4984 281.143 26.387C281.19 26.2757 281.209 26.1539 281.196 26.0333C281.24 25.9129 281.237 25.7801 281.187 25.662C281.136 25.5439 281.043 25.4493 280.926 25.3974Z" fill="#228FE0"/>
<path d="M272.919 30.1279L271.646 28.7629V30.3094H268.646L266.826 28.2169L264.825 30.3094H258.825V23.9433H264.918L266.828 26.0359L267.737 24.9438L265.463 22.6698H257.457V31.583H265.461L266.826 30.2194L268.008 31.583H272.919V30.1279Z" fill="#2FABF7"/>
<path d="M263.46 20.668L262.278 19.3945H261.732V18.8485L260.367 17.4834L259.458 19.393H258.184L256.002 14.3904V19.393H252.915L252.279 18.0294H249.18L248.544 19.393H246.907L249.636 13.0269H251.908L254.458 19.1215V13.0284H255.823L254.55 11.7549H253.185V12.8469L252.735 11.7549H248.725L246.905 16.0299L244.814 20.668H249.544L250.09 19.3045H251.364L252 20.668H257.1V19.576L257.55 20.668H260.187L260.637 19.576V20.668H263.46Z" fill="#2FABF7"/>
<path d="M259.276 16.4837L257.821 15.0287L258.913 17.3927L259.276 16.4837Z" fill="#2FABF7"/>
<path d="M300.659 31.1266C301.068 30.8509 301.411 30.4875 301.663 30.0628C301.914 29.638 302.068 29.1626 302.114 28.671L300.84 27.3975C300.953 27.6878 301.014 27.9953 301.022 28.3065C301.029 28.5593 300.984 28.8108 300.89 29.0456C300.796 29.2803 300.655 29.4934 300.476 29.6716C299.947 30.1262 299.261 30.3547 298.566 30.3075H295.656V28.944H298.566C298.679 28.9631 298.795 28.9567 298.905 28.9253C299.015 28.8938 299.116 28.8382 299.202 28.7625C299.319 28.6399 299.384 28.4771 299.384 28.308C299.384 28.1388 299.319 27.9762 299.202 27.8535C299.05 27.7246 298.855 27.6595 298.656 27.672C297.201 27.5805 295.473 27.672 295.473 25.671C295.473 24.762 296.019 23.943 297.383 23.7615L296.382 22.7609C296.201 22.8524 296.109 22.9424 296.019 22.9424V22.3949H291.837C291.186 22.3664 290.545 22.5588 290.017 22.941V22.3949H282.559V22.941C281.962 22.5619 281.265 22.3716 280.558 22.3949H275.647V22.941C275.026 22.5394 274.293 22.348 273.555 22.3949H268.092L266.818 23.76L265.636 22.3949H264.642L267.37 25.1235L268.734 23.6685H273.555C274.737 23.6685 276.105 24.0329 276.105 25.761C276.105 27.5805 274.831 27.9435 273.468 27.9435H271.648V29.307L273.013 30.6705V29.307H273.463C274.174 29.3521 274.887 29.2594 275.563 29.034V31.4895H279.642V29.1255H279.823C280.096 29.1255 280.096 29.1255 280.096 29.3985V31.4911H292.465C293.203 31.5301 293.934 31.3393 294.558 30.9451V31.4911H298.469C299.216 31.6015 299.98 31.4746 300.651 31.128L300.659 31.1266ZM282.559 27.852C282.767 28.2097 282.862 28.6216 282.832 29.034V30.3075H281.292V29.4885C281.343 29.0456 281.247 28.598 281.019 28.215C280.837 27.942 280.473 27.942 279.927 27.942H278.292V30.306H276.745V23.856H280.195C280.815 23.7906 281.441 23.8846 282.015 24.129C282.271 24.2733 282.484 24.4853 282.628 24.7418C282.772 24.9984 282.844 25.2897 282.834 25.584C282.847 25.9485 282.75 26.3085 282.555 26.6169C282.36 26.9252 282.077 27.1675 281.742 27.312C282.065 27.3993 282.352 27.5886 282.559 27.852ZM288.835 25.215H285.288V26.397H288.738V27.6705H285.288V28.944H288.835V30.3075H283.735V23.8575H288.835V25.215ZM292.656 30.315H289.746V28.9515H292.656C292.769 28.9706 292.884 28.9642 292.995 28.9328C293.105 28.9014 293.206 28.8457 293.292 28.77C293.408 28.6474 293.473 28.4847 293.473 28.3155C293.473 28.1463 293.408 27.9837 293.292 27.861C293.14 27.7322 292.945 27.6671 292.746 27.6795C291.291 27.588 289.563 27.6795 289.563 25.6785C289.563 24.7695 290.109 23.7689 291.745 23.7689H294.746V25.3155H291.925C291.709 25.2943 291.491 25.3257 291.289 25.407C291.108 25.4985 291.108 25.68 291.108 25.857C291.108 26.13 291.289 26.2215 291.472 26.307C291.644 26.3813 291.832 26.4127 292.018 26.3985H292.837C293.147 26.3687 293.46 26.4016 293.757 26.4955C294.054 26.5893 294.329 26.742 294.566 26.9445C294.89 27.3217 295.052 27.8119 295.016 28.308C295.016 29.6715 294.201 30.3075 292.654 30.3075L292.656 30.315Z" fill="#228FE0"/>
<path d="M297.021 25.8521C297.021 26.1251 297.112 26.2167 297.385 26.3022C297.557 26.3765 297.744 26.4079 297.931 26.3937H298.75C299.191 26.3769 299.628 26.4708 300.024 26.6666L298.658 25.3031H297.84C297.623 25.282 297.405 25.3134 297.203 25.3946C297.089 25.5196 297.024 25.6824 297.021 25.8521Z" fill="#228FE0"/>
<path d="M293.839 20.3943L294.02 20.6673H294.112L293.839 20.3943Z" fill="#228FE0"/>
<path d="M288.836 15.3919L290.382 19.121V16.9385L288.836 15.3919Z" fill="#228FE0"/>
<path d="M273.284 18.3934H273.47C273.651 18.3934 273.651 18.3934 273.651 18.6664V20.6674H280.2V20.1214C280.965 20.4925 281.806 20.6794 282.656 20.6674H285.384L285.93 19.2124H287.204L287.75 20.6674H293.025V19.7584L291.752 18.4849V19.4854H288.659L288.209 18.0304H285.02L284.474 19.4854H282.743C282.321 19.5328 281.894 19.4814 281.496 19.3353C281.097 19.1891 280.738 18.9523 280.447 18.6435C280.156 18.3347 279.941 17.9624 279.819 17.5561C279.696 17.1497 279.67 16.7205 279.743 16.3023C279.69 15.3802 279.982 14.4715 280.562 13.7523C280.866 13.4747 281.227 13.2661 281.619 13.1405C282.012 13.015 282.427 12.9755 282.836 13.0248H284.291V14.3898H282.836C282.41 14.3563 281.987 14.4866 281.654 14.7543C281.33 15.1676 281.17 15.6855 281.204 16.2093C281.166 16.4843 281.187 16.764 281.264 17.0305C281.342 17.2969 281.474 17.5441 281.654 17.7559C281.801 17.888 281.974 17.9885 282.162 18.0512C282.35 18.1139 282.548 18.1374 282.746 18.1204H283.382L285.474 13.1178H286.383L285.11 11.8443H282.743C281.861 11.8207 280.987 12.0079 280.193 12.3903V11.8443H276.194V12.3903C275.701 12.0087 275.088 11.8151 274.466 11.8443H259.819L258.819 14.1183L257.818 11.8443H253.819L255.093 13.1178H256.912L258.459 16.4824L259.005 17.0284L260.641 13.0263H263.191V19.4764H261.642V14.4738L260.095 18.1114L262.732 20.7484H273.192L273.284 18.3934ZM277.467 13.0278H279.02V19.4779H277.467V13.0278ZM269.463 14.3928H265.916V15.5748H269.366V16.8483H265.916V18.1219H269.463V19.4869H264.363V13.0368H269.463V14.3928ZM272.013 19.3954H270.47V12.9453H273.92C274.54 12.8718 275.168 12.9661 275.739 13.2183C275.983 13.3695 276.181 13.5857 276.309 13.8427C276.438 14.0996 276.492 14.3872 276.467 14.6733C276.48 15.0378 276.383 15.3978 276.188 15.7062C275.993 16.0145 275.71 16.2568 275.375 16.4013C275.68 16.4799 275.941 16.6763 276.102 16.9474C276.298 17.3094 276.393 17.7179 276.375 18.1294V19.4029H274.829V18.5839C274.87 18.1414 274.775 17.6968 274.556 17.3103C274.464 17.1288 274.191 17.1289 273.647 17.1289H272.01V19.4029L272.013 19.3954Z" fill="#228FE0"/>
<path d="M358.516 22.8948C361.558 22.8948 364.023 20.4295 364.023 17.3883C364.023 14.3471 361.558 11.8817 358.516 11.8817C355.475 11.8817 353.01 14.3471 353.01 17.3883C353.01 20.4295 355.475 22.8948 358.516 22.8948Z" fill="#F26E21"/>
<path d="M328.859 20.0232C328.064 20.6552 327.054 20.9537 326.043 20.8557H325.491V13.9421H326.043C326.545 13.8911 327.052 13.9396 327.535 14.0847C328.018 14.2299 328.468 14.4689 328.859 14.7881C329.219 15.1182 329.507 15.5202 329.702 15.9682C329.898 16.4162 329.997 16.9003 329.994 17.3891C329.998 17.8829 329.898 18.3719 329.703 18.8254C329.507 19.2788 329.22 19.6867 328.859 20.0232ZM326.459 12.172H323.435V22.6212H326.435C327.793 22.6985 329.132 22.2711 330.195 21.4212C331.058 20.7149 331.672 19.751 331.948 18.6705C332.224 17.59 332.146 16.4497 331.727 15.4163C331.308 14.383 330.569 13.5109 329.619 12.9277C328.668 12.3445 327.556 12.0807 326.445 12.175" fill="#0B161F"/>
<path d="M333.061 22.6218H335.114V12.1696H333.061V22.6218Z" fill="#0B161F"/>
<path d="M340.142 16.183C338.907 15.733 338.544 15.433 338.544 14.869C338.544 14.2105 339.191 13.7079 340.077 13.7079C340.4 13.7146 340.717 13.794 341.005 13.9402C341.293 14.0864 341.544 14.2957 341.739 14.5525L342.812 13.1589C341.958 12.4035 340.855 11.9901 339.714 11.9979C339.3 11.9707 338.885 12.0273 338.494 12.1642C338.102 12.3011 337.742 12.5156 337.435 12.7948C337.128 13.074 336.881 13.4123 336.708 13.7893C336.535 14.1663 336.44 14.5743 336.428 14.989C336.428 16.4335 337.091 17.1685 339.02 17.86C339.512 18.0138 339.988 18.2147 340.442 18.46C340.63 18.5707 340.786 18.7285 340.894 18.918C341.002 19.1074 341.059 19.3219 341.058 19.54C341.055 19.7432 341.011 19.9436 340.928 20.1291C340.845 20.3146 340.725 20.4812 340.575 20.619C340.426 20.7567 340.25 20.8627 340.059 20.9304C339.867 20.9982 339.664 21.0263 339.461 21.013C338.991 21.0226 338.529 20.8959 338.129 20.6484C337.73 20.4008 337.411 20.043 337.211 19.618L335.885 20.8885C336.262 21.5153 336.8 22.0299 337.442 22.3793C338.085 22.7287 338.809 22.9002 339.54 22.8761C340.009 22.9101 340.48 22.8461 340.923 22.6882C341.366 22.5304 341.771 22.2821 342.113 21.9591C342.454 21.6362 342.725 21.2457 342.908 20.8124C343.09 20.3791 343.181 19.9126 343.173 19.4425C343.173 17.7805 342.48 17.0275 340.142 16.18" fill="#0B161F"/>
<path d="M343.822 17.4034C343.82 18.1299 343.962 18.8495 344.242 19.5198C344.522 20.1902 344.934 20.7976 345.452 21.3063C345.971 21.815 346.586 22.2146 347.262 22.4815C347.937 22.7485 348.66 22.8773 349.386 22.8605C350.281 22.8614 351.163 22.6523 351.963 22.25V19.85C351.655 20.207 351.274 20.4939 350.846 20.6913C350.417 20.8888 349.952 20.9922 349.48 20.9945C349.006 21.0102 348.534 20.9274 348.093 20.7512C347.653 20.5751 347.253 20.3095 346.921 19.9711C346.588 19.6328 346.329 19.2291 346.16 18.7856C345.991 18.342 345.917 17.8683 345.94 17.3944C345.927 16.9311 346.006 16.4698 346.173 16.0374C346.34 15.6049 346.591 15.2101 346.912 14.876C347.234 14.5418 347.618 14.275 348.044 14.0911C348.469 13.9072 348.927 13.8099 349.39 13.8049C349.879 13.8074 350.361 13.9135 350.805 14.1162C351.249 14.3189 351.646 14.6137 351.967 14.9809V12.5809C351.191 12.1591 350.321 11.9389 349.437 11.9403C348.709 11.9284 347.986 12.0607 347.309 12.3295C346.632 12.5983 346.015 12.9983 345.494 13.5065C344.972 14.0147 344.557 14.6211 344.271 15.2907C343.984 15.9602 343.834 16.6798 343.827 17.4079" fill="#0B161F"/>
<path d="M368.622 19.1946L365.808 12.173H363.558L368.032 22.8936H369.138L373.69 12.173H371.461L368.611 19.1946" fill="#0B161F"/>
<path d="M374.629 22.6221H380.46V20.8536H376.682V18.0321H380.314V16.2635H376.682V13.943H380.46V12.173H374.629V22.6221Z" fill="#0B161F"/>
<path d="M384.471 16.9852H383.871V13.8172H384.503C385.785 13.8172 386.481 14.3527 386.481 15.3697C386.481 16.4197 385.785 16.9852 384.47 16.9852H384.471ZM388.597 15.2587C388.597 13.3087 387.247 12.1746 384.866 12.1746H381.816V22.6223H383.871V18.4222H384.141L386.991 22.6223H389.521L386.199 18.2182C386.901 18.1221 387.54 17.762 387.986 17.2114C388.432 16.6607 388.651 15.9608 388.6 15.2542" fill="#0B161F"/>
<path d="M338.432 32.3406V26.4605L342.447 30.6605V26.834H343.278V32.6751L339.263 28.484V32.3391H338.432V32.3406Z" fill="black"/>
<path d="M347.636 27.6156H345.428V28.9386H347.571V29.7201H345.428V31.5592H347.636V32.3407H344.597V26.8356H347.636V27.6156Z" fill="black"/>
<path d="M350.246 27.6171V32.3422H349.415V27.6171H348.149V26.8356H351.509V27.6171H350.246Z" fill="black"/>
<path d="M352.848 26.8357L354.282 30.5152L355.782 26.5672L357.216 30.5152L358.738 26.8357H359.638L357.178 32.6858L355.762 28.7857L354.286 32.6858L351.946 26.8267L352.848 26.8357Z" fill="black"/>
<path d="M359.8 29.5631C359.796 29.1894 359.869 28.8191 360.016 28.4754C360.163 28.1317 360.379 27.8223 360.652 27.5666C360.918 27.2971 361.236 27.0843 361.586 26.9409C361.937 26.7976 362.313 26.7267 362.692 26.7325C363.45 26.7365 364.176 27.0395 364.712 27.5757C365.248 28.1119 365.55 28.838 365.554 29.5961C365.56 29.9723 365.488 30.3457 365.342 30.6925C365.196 31.0394 364.979 31.352 364.706 31.6106C364.179 32.1269 363.476 32.4238 362.738 32.441C362.001 32.4583 361.285 32.1947 360.734 31.7036C360.428 31.4395 360.185 31.1101 360.023 30.7396C359.862 30.3691 359.785 29.9671 359.8 29.5631ZM360.638 29.5721C360.629 29.8512 360.68 30.1289 360.785 30.3873C360.891 30.6458 361.05 30.8791 361.252 31.0721C361.634 31.4505 362.151 31.6618 362.689 31.6598C363.227 31.6579 363.743 31.4427 364.123 31.0616C364.503 30.6645 364.715 30.1361 364.715 29.5863C364.715 29.0366 364.503 28.5081 364.123 28.1111C363.738 27.7278 363.217 27.5126 362.674 27.5126C362.13 27.5126 361.609 27.7278 361.225 28.1111C361.032 28.3013 360.881 28.5289 360.78 28.78C360.679 29.031 360.631 29.3001 360.638 29.5706V29.5721Z" fill="black"/>
<path d="M368.465 29.9937L370.171 32.3397H369.154L367.582 30.0897H367.432V32.3397H366.601V26.8346H367.574C368.131 26.7864 368.688 26.9316 369.151 27.2457C369.325 27.3919 369.464 27.576 369.557 27.7839C369.65 27.9918 369.694 28.2181 369.686 28.4457C369.695 28.8096 369.576 29.1652 369.35 29.4507C369.129 29.7313 368.815 29.9238 368.465 29.9937ZM367.432 29.3622H367.694C368.481 29.3622 368.875 29.0622 368.875 28.4622C368.875 27.8982 368.492 27.6166 367.726 27.6176H367.426V29.3652L367.432 29.3622Z" fill="black"/>
<path d="M371.828 29.0316L373.973 26.8356H375.083L372.595 29.3286L375.098 32.3406H373.985L372.002 29.8911L371.831 30.0636V32.3421H371V26.8356H371.831V29.0316H371.828Z" fill="black"/>
<path d="M420.956 12.1768C420.635 11.5512 420.148 11.0261 419.548 10.6588C418.858 10.2509 418.1 9.97236 417.309 9.83676C416.304 9.67221 415.286 9.59194 414.267 9.59676H408.887C408.604 9.6092 408.331 9.71093 408.109 9.88746C407.886 10.064 407.725 10.3063 407.648 10.5798L404.028 26.3518C403.993 26.4696 403.987 26.5942 404.01 26.715C404.033 26.8358 404.085 26.9492 404.162 27.0455C404.238 27.1418 404.337 27.2182 404.449 27.268C404.562 27.3179 404.685 27.3397 404.807 27.3318H407.383C407.668 27.3236 407.942 27.2238 408.165 27.0472C408.388 26.8706 408.547 26.6266 408.62 26.3518L409.5 22.5238C409.574 22.2497 409.734 22.0065 409.956 21.8303C410.178 21.6542 410.452 21.5544 410.735 21.5458H411.473C414.624 21.5458 417.064 20.8988 418.816 19.6088C419.645 19.0431 420.32 18.2796 420.78 17.3873C421.239 16.495 421.469 15.5022 421.447 14.4988C421.481 13.6958 421.312 12.8974 420.956 12.1768ZM415.4 17.3288C414.433 17.953 413.292 18.2529 412.142 18.1848H411.51C411.387 18.1922 411.264 18.1698 411.152 18.1197C411.039 18.0696 410.94 17.993 410.864 17.8966C410.787 17.8002 410.734 17.6868 410.711 17.5658C410.687 17.4449 410.693 17.32 410.727 17.2018L411.5 13.8528C411.57 13.5783 411.728 13.3343 411.95 13.1578C412.171 12.9812 412.444 12.8819 412.727 12.8748L413.572 12.8688C414.352 12.8199 415.129 12.9933 415.813 13.3688C416.061 13.5365 416.261 13.7668 416.391 14.0364C416.522 14.3059 416.579 14.6051 416.556 14.9038C416.583 15.3726 416.492 15.8407 416.29 16.2646C416.088 16.6885 415.782 17.0546 415.4 17.3288Z" fill="#013088"/>
<path d="M494.407 10.8318L494.246 10.8808L494.03 10.9108L493.765 10.8698L493.63 10.7388L493.568 10.5328V9.07577H494.429V8.72477H493.567V8.00977H493.141V8.72477H492.852V9.07977H493.141V10.4138L493.341 11.0748L493.927 11.2848L494.173 11.2638L494.434 11.2128V10.8358L494.407 10.8318Z" fill="white"/>
<path d="M498.405 8.90276L497.789 8.64977L497.335 8.74176L496.873 9.05376L496.605 8.75376L496.17 8.65376L495.752 8.74576L495.352 9.00076V8.72576H494.933V11.2258H495.35V9.35576L495.701 9.13776L496.05 9.05176L496.335 9.10276L496.476 9.24776L496.538 9.48776L496.559 9.79776V11.2258H496.981V9.62576L496.974 9.49276L496.966 9.37076L497.323 9.14376L497.676 9.05576L497.952 9.10676L498.102 9.25176L498.155 9.49376L498.183 9.79976V11.2258H498.603V9.60276L498.405 8.90276Z" fill="white"/>
<path d="M433.385 14.4318C431.94 13.7901 430.362 13.508 428.785 13.6098C427.741 13.6104 426.699 13.6913 425.668 13.8518C424.897 13.9698 424.822 13.9928 424.347 14.0958C424.063 14.1636 423.804 14.3124 423.603 14.5239C423.402 14.7354 423.266 15.0008 423.213 15.2878L422.898 16.5878C422.72 17.4158 423.198 17.3878 423.398 17.3138C423.902 17.1317 424.416 16.9801 424.939 16.8598C425.729 16.6635 426.538 16.5552 427.352 16.5368C428.147 16.4991 428.942 16.6111 429.696 16.8668C429.933 16.9534 430.137 17.1138 430.277 17.3245C430.417 17.5352 430.485 17.7852 430.473 18.0378L430.428 18.4018L430.056 18.6308C428.594 18.7228 427.537 18.8578 426.256 19.0438C425.129 19.1848 424.029 19.488 422.989 19.9438C422.097 20.3045 421.326 20.911 420.766 21.6928C420.255 22.4986 419.998 23.4392 420.028 24.3928C420.015 24.8527 420.102 25.3099 420.284 25.7328C420.465 26.1558 420.735 26.5344 421.077 26.8428C421.833 27.4823 422.803 27.8133 423.793 27.7698C424.336 27.7793 424.879 27.7289 425.411 27.6198L426.659 27.1898L427.716 26.6038L428.688 25.9618L428.701 25.9808L428.601 26.3938L428.595 26.4108C428.565 26.5203 428.56 26.635 428.58 26.7467C428.6 26.8584 428.645 26.9642 428.711 27.0565C428.776 27.1489 428.862 27.2254 428.961 27.2806C429.06 27.3358 429.17 27.3683 429.284 27.3758L429.293 27.3868H431.685L431.719 27.3718C431.978 27.3374 432.221 27.2275 432.418 27.056C432.615 26.8844 432.758 26.6586 432.828 26.4068L434.707 18.2748L434.807 17.6128L434.852 16.9918C434.88 16.4691 434.756 15.9496 434.496 15.4955C434.235 15.0414 433.85 14.672 433.385 14.4318ZM429.23 23.5748L428.83 24.1038L427.817 24.6278C427.391 24.8104 426.933 24.9092 426.47 24.9188C425.965 24.9469 425.461 24.8507 425.002 24.6388L424.502 23.6728C424.477 23.2226 424.61 22.7779 424.879 22.4158L425.971 21.6728C426.524 21.493 427.093 21.3648 427.671 21.2898C428.26 21.2168 429.424 21.0838 429.571 21.0798L429.749 21.3928C429.715 21.5708 429.385 22.9518 429.227 23.5748H429.23Z" fill="#013088"/>
<path d="M480.182 14.4468C478.738 13.8052 477.16 13.5225 475.582 13.6228C474.539 13.6225 473.498 13.7054 472.467 13.8708C471.694 13.9838 471.617 14.0078 471.14 14.1088C470.857 14.177 470.599 14.3262 470.398 14.5381C470.198 14.7501 470.063 15.0157 470.01 15.3028L469.695 16.5978C469.519 17.4258 469.984 17.3878 470.202 17.3238C470.704 17.1453 471.214 16.993 471.73 16.8678C472.523 16.6756 473.333 16.568 474.147 16.5468C474.941 16.5097 475.734 16.6224 476.485 16.8788C476.723 16.9649 476.927 17.1249 477.067 17.3353C477.206 17.5457 477.275 17.7954 477.262 18.0478L477.223 18.4098L476.855 18.6448C475.378 18.7328 474.32 18.8678 473.055 19.0538C471.928 19.1947 470.827 19.4979 469.786 19.9538C468.896 20.3162 468.127 20.9241 467.568 21.7068C467.057 22.5065 466.8 23.4421 466.829 24.3908C466.814 24.8525 466.901 25.3118 467.083 25.7363C467.266 26.1608 467.539 26.5399 467.884 26.8468C468.639 27.4867 469.606 27.8197 470.594 27.7798C471.137 27.7904 471.679 27.7394 472.21 27.6278L473.454 27.2038L474.52 26.6178L475.485 25.9688L475.502 25.9898L475.414 26.4068L475.405 26.4148V26.4228C475.373 26.532 475.367 26.6472 475.385 26.7595C475.404 26.8718 475.448 26.9783 475.514 27.0712C475.58 27.1641 475.666 27.2408 475.766 27.2956C475.866 27.3504 475.977 27.3819 476.09 27.3878V27.3968H478.481L478.52 27.3838C478.78 27.349 479.022 27.238 479.218 27.0649C479.414 26.8919 479.554 26.6645 479.62 26.4118L481.504 18.2918L481.604 17.6258L481.658 17.0028C481.685 16.4797 481.56 15.9601 481.298 15.5066C481.036 15.053 480.649 14.685 480.182 14.4468ZM476.037 23.5858L475.619 24.1208L474.619 24.6408C474.195 24.8218 473.739 24.9205 473.277 24.9318C472.773 24.9628 472.269 24.8658 471.811 24.6498L471.311 23.6868C471.29 23.2371 471.419 22.7932 471.679 22.4258C471.977 22.0892 472.356 21.8341 472.779 21.6848C473.333 21.5063 473.902 21.3788 474.479 21.3038C475.065 21.2308 476.224 21.0938 476.379 21.0918L476.561 21.4048C476.523 21.5838 476.19 22.9588 476.037 23.5858Z" fill="#019CDF"/>
<path d="M467.748 12.2358C467.419 11.611 466.929 11.0851 466.329 10.7118C465.642 10.2982 464.882 10.0193 464.09 9.88976C463.089 9.72439 462.075 9.64543 461.059 9.65376H455.671C455.389 9.6667 455.119 9.76844 454.898 9.94444C454.677 10.1204 454.518 10.3617 454.442 10.6338L450.819 26.4128C450.785 26.5303 450.779 26.6544 450.802 26.7747C450.825 26.8949 450.877 27.0078 450.954 27.1037C451.03 27.1997 451.128 27.2758 451.24 27.3258C451.352 27.3758 451.474 27.398 451.596 27.3908H454.176C454.46 27.3806 454.733 27.2806 454.955 27.1051C455.178 26.9296 455.339 26.6879 455.415 26.4148L456.288 22.5848C456.364 22.3113 456.525 22.0691 456.748 21.8932C456.971 21.7174 457.244 21.617 457.527 21.6068H458.265C460.862 21.7584 463.439 21.0808 465.625 19.6718C466.449 19.0998 467.119 18.3335 467.576 17.4408C468.033 16.5481 468.263 15.5565 468.245 14.5538C468.267 13.7525 468.096 12.9578 467.748 12.2358ZM462.191 17.3948C461.223 18.0092 460.086 18.3047 458.941 18.2398H458.299C458.176 18.2473 458.053 18.2251 457.94 18.1752C457.828 18.1252 457.728 18.0489 457.651 17.9527C457.574 17.8565 457.521 17.7432 457.497 17.6223C457.472 17.5013 457.477 17.3763 457.511 17.2578L458.292 13.9158C458.364 13.6415 458.523 13.3979 458.745 13.2216C458.967 13.0452 459.24 12.9456 459.523 12.9378L460.358 12.9318C461.137 12.8855 461.914 13.0587 462.599 13.4318C462.847 13.6001 463.047 13.8303 463.178 14.0996C463.31 14.3689 463.368 14.6678 463.348 14.9668C463.372 15.4357 463.279 15.9032 463.077 16.3271C462.875 16.751 462.571 17.1179 462.191 17.3948Z" fill="#019CDF"/>
<path d="M489.843 10.7598C489.878 10.6431 489.884 10.5198 489.861 10.4003C489.837 10.2808 489.786 10.1687 489.71 10.0736C489.634 9.97845 489.536 9.90313 489.424 9.85406C489.313 9.80498 489.191 9.78361 489.07 9.79176H486.766C486.528 9.80855 486.298 9.89043 486.103 10.0285C485.908 10.1665 485.754 10.3555 485.659 10.5748L485.531 10.7748L485.415 11.2848L482.185 25.9508L482.085 26.4008V26.4118C482.058 26.5151 482.053 26.6233 482.072 26.7285C482.091 26.8338 482.133 26.9336 482.194 27.0209C482.256 27.1083 482.336 27.181 482.429 27.234C482.522 27.2871 482.625 27.319 482.732 27.3278L482.771 27.3818H485.171C485.412 27.364 485.643 27.2798 485.839 27.1386C486.036 26.9974 486.189 26.8047 486.282 26.5818L486.406 26.3938L489.851 10.7598H489.843Z" fill="#019CDF"/>
<path d="M450.891 13.8068C450.281 13.8148 447.802 13.8068 447.802 13.8068C447.477 13.8417 447.162 13.9479 446.882 14.1178C446.602 14.2877 446.363 14.5171 446.181 14.7898C446.181 14.7898 442.491 21.1218 442.133 21.7578L441.705 21.7518L440.556 14.8348C440.466 14.5359 440.281 14.275 440.028 14.0924C439.774 13.9098 439.468 13.8157 439.156 13.8248H436.848C436.726 13.818 436.604 13.8409 436.492 13.8915C436.38 13.942 436.282 14.0188 436.207 14.1153C436.131 14.2118 436.08 14.3252 436.057 14.4457C436.035 14.5663 436.042 14.6905 436.077 14.8078C436.077 14.8078 437.83 24.7828 438.177 27.1298C438.34 28.4248 438.156 28.6558 438.156 28.6558L435.873 32.6348C435.535 33.1748 435.717 33.6168 436.273 33.6168H438.942C439.268 33.5868 439.583 33.483 439.863 33.3132C440.143 33.1434 440.381 32.9121 440.558 32.6368L450.821 15.2688C450.821 15.2688 451.81 13.7858 450.891 13.8068Z" fill="#013088"/>
</svg>
